<?xml version="1.0" encoding="UTF-8" standalone="no"?>
<!-- Created with Inkscape (http://www.inkscape.org/) -->

<svg
   xmlns:dc="http://purl.org/dc/elements/1.1/"
   xmlns:cc="http://creativecommons.org/ns#"
   xmlns:rdf="http://www.w3.org/1999/02/22-rdf-syntax-ns#"
   xmlns:svg="http://www.w3.org/2000/svg"
   xmlns="http://www.w3.org/2000/svg"
   xmlns:sodipodi="http://sodipodi.sourceforge.net/DTD/sodipodi-0.dtd"
   xmlns:inkscape="http://www.inkscape.org/namespaces/inkscape"
   width="500"
   height="500"
   id="svg5130"
   version="1.1"
   inkscape:version="0.48.4 r9939"
   sodipodi:docname="icon.svg">
  <defs
     id="defs5132" />
  <sodipodi:namedview
     id="base"
     pagecolor="#ffffff"
     bordercolor="#666666"
     borderopacity="1.0"
     inkscape:pageopacity="0.0"
     inkscape:pageshadow="2"
     inkscape:zoom="1.4"
     inkscape:cx="80.995654"
     inkscape:cy="240.88681"
     inkscape:document-units="px"
     inkscape:current-layer="layer2"
     showgrid="true"
     inkscape:window-width="1920"
     inkscape:window-height="1018"
     inkscape:window-x="0"
     inkscape:window-y="38"
     inkscape:window-maximized="1"
     inkscape:snap-global="false">
    <inkscape:grid
       type="xygrid"
       id="grid3807"
       empspacing="5"
       visible="true"
       enabled="true"
       snapvisiblegridlinesonly="true" />
  </sodipodi:namedview>
  <metadata
     id="metadata5135">
    <rdf:RDF>
      <cc:Work
         rdf:about="">
        <dc:format>image/svg+xml</dc:format>
        <dc:type
           rdf:resource="http://purl.org/dc/dcmitype/StillImage" />
        <dc:title />
      </cc:Work>
    </rdf:RDF>
  </metadata>
  <g
     inkscape:groupmode="layer"
     id="layer7"
     inkscape:label="Background"
     sodipodi:insensitive="true" />
  <g
     inkscape:groupmode="layer"
     id="layer3"
     inkscape:label="backdrop"
     sodipodi:insensitive="true">
    <rect
       style="fill:#a63131;fill-opacity:1;fill-rule:nonzero;stroke:none"
       id="rect3805"
       width="499.94757"
       height="499.94308"
       x="0.16895987"
       y="0.075506337"
       ry="77.142853" />
  </g>
  <g
     inkscape:groupmode="layer"
     id="layer2"
     inkscape:label="bold">
    <g
       style="font-size:144px;font-style:normal;font-variant:normal;font-weight:normal;font-stretch:normal;line-height:125%;letter-spacing:0px;word-spacing:0px;fill:#fbf4f4;fill-opacity:1;stroke:none;font-family:Magra;-inkscape-font-specification:Magra"
       id="text3856"
       transform="matrix(4.0023707,0,0,3.6937316,-768.21315,-626.90876)">
      <path
         d="m 277.80251,220.77257 c 6.14393,5.76006 9.21592,16.08005 9.216,30.96 -8e-5,7.77603 -1.00807,14.54402 -3.024,20.304 -2.01607,5.66401 -4.75207,9.98401 -8.208,12.96 -6.52806,5.76 -14.20805,8.64 -23.04,8.64 -11.71203,0 -22.03202,-3.312 -30.96,-9.936 l 0,-100.08 22.032,-2.448 0,31.536 -2.016,5.328 0.576,0.432 c 4.03196,-3.35992 9.59996,-5.03992 16.704,-5.04 7.19994,8e-5 13.43994,2.44808 18.72,7.344 m -33.984,53.28 c 2.20797,1.63202 4.51196,2.44801 6.912,2.448 2.39996,1e-5 4.12796,-0.19199 5.184,-0.576 1.15195,-0.38398 2.35195,-1.29598 3.6,-2.736 2.68795,-2.78398 4.03195,-8.97597 4.032,-18.576 -5e-5,-9.69595 -0.91205,-16.12795 -2.736,-19.296 -1.72805,-3.16794 -4.46405,-4.75194 -8.208,-4.752 -3.74404,6e-5 -6.67203,1.29606 -8.784,3.888 l 0,39.6"
         style="font-weight:600;fill:#fbf4f4;fill-opacity:1;-inkscape-font-specification:Magra Semi-Bold"
         id="path2999"
         inkscape:connector-curvature="0" />
    </g>
    <path
       sodipodi:nodetypes="cc"
       inkscape:connector-curvature="0"
       id="path3874"
       d="m 669.0659,217.32743 c -446.04393,188.44838 -223.02197,94.22419 0,0 z"
       style="fill:#5f1c1c;fill-opacity:1;fill-rule:nonzero;stroke:#333333;stroke-width:0;stroke-linejoin:miter;stroke-miterlimit:4;stroke-opacity:1;display:inline" />
    <text
       xml:space="preserve"
       style="font-size:144px;font-style:normal;font-variant:normal;font-weight:normal;font-stretch:normal;line-height:125%;letter-spacing:0px;word-spacing:0px;fill:#000000;fill-opacity:1;stroke:none;font-family:Magra;-inkscape-font-specification:Magra"
       x="682.8631"
       y="114.12173"
       id="text3877"
       sodipodi:linespacing="125%"><tspan
         sodipodi:role="line"
         id="tspan3879"
         x="682.8631"
         y="114.12173"
         style="font-weight:600;-inkscape-font-specification:Magra Semi-Bold" /></text>
  </g>
</svg>
