<?xml version="1.0" encoding="UTF-8" standalone="no"?>
<!-- Created with Inkscape (http://www.inkscape.org/) -->

<svg
   xmlns:dc="http://purl.org/dc/elements/1.1/"
   xmlns:cc="http://creativecommons.org/ns#"
   xmlns:rdf="http://www.w3.org/1999/02/22-rdf-syntax-ns#"
   xmlns:svg="http://www.w3.org/2000/svg"
   xmlns="http://www.w3.org/2000/svg"
   xmlns:sodipodi="http://sodipodi.sourceforge.net/DTD/sodipodi-0.dtd"
   xmlns:inkscape="http://www.inkscape.org/namespaces/inkscape"
   width="900"
   height="500"
   id="svg2"
   version="1.1"
   inkscape:version="0.48.4 r9939"
   sodipodi:docname="logo.svg">
  <defs
     id="defs4" />
  <sodipodi:namedview
     id="base"
     pagecolor="#ffffff"
     bordercolor="#666666"
     borderopacity="1.0"
     inkscape:pageopacity="0.0"
     inkscape:pageshadow="2"
     inkscape:zoom="2"
     inkscape:cx="411.69823"
     inkscape:cy="269.3652"
     inkscape:document-units="px"
     inkscape:current-layer="layer4"
     showgrid="false"
     inkscape:window-width="1920"
     inkscape:window-height="1018"
     inkscape:window-x="0"
     inkscape:window-y="38"
     inkscape:window-maximized="1" />
  <metadata
     id="metadata7">
    <rdf:RDF>
      <cc:Work
         rdf:about="">
        <dc:format>image/svg+xml</dc:format>
        <dc:type
           rdf:resource="http://purl.org/dc/dcmitype/StillImage" />
        <dc:title></dc:title>
      </cc:Work>
    </rdf:RDF>
  </metadata>
  <g
     inkscape:groupmode="layer"
     id="layer3"
     inkscape:label="background"
     sodipodi:insensitive="true">
    <rect
       style="fill:#a63131;fill-opacity:1;fill-rule:nonzero;stroke:#333333;stroke-width:0;stroke-linejoin:miter;stroke-miterlimit:4;stroke-opacity:1;stroke-dasharray:none"
       id="rect3793"
       width="722.85718"
       height="344.28571"
       x="66.428574"
       y="48.571426" />
  </g>
  <g
     inkscape:label="Layer 1"
     inkscape:groupmode="layer"
     id="layer1"
     transform="translate(0,-552.36218)"
     sodipodi:insensitive="true">
    <flowRoot
       xml:space="preserve"
       id="flowRoot2985"
       style="font-size:40px;font-style:normal;font-variant:normal;font-weight:normal;font-stretch:normal;line-height:125%;letter-spacing:0px;word-spacing:0px;fill:#000000;fill-opacity:1;stroke:none;font-family:Magra;-inkscape-font-specification:Magra"><flowRegion
         id="flowRegion2987"><rect
           id="rect2989"
           width="388.57144"
           height="251.42857"
           x="145.71428"
           y="469.50504"
           style="font-style:normal;font-variant:normal;font-weight:normal;font-stretch:normal;font-family:Magra;-inkscape-font-specification:Magra" /></flowRegion><flowPara
         id="flowPara2991"></flowPara></flowRoot>    <g
       style="font-size:144px;font-style:normal;font-variant:normal;font-weight:normal;font-stretch:normal;line-height:125%;letter-spacing:0px;word-spacing:0px;fill:#ffffff;fill-opacity:1;stroke:none;font-family:Magra;-inkscape-font-specification:Magra"
       id="text2993"
       transform="translate(-1.0101525,13.131984)">
      <path
         d="m 263.65819,747.72613 c 3.93594,6.24006 5.90393,15.16805 5.904,26.784 -7e-5,15.93602 -3.45606,26.97601 -10.368,33.12 -6.04805,5.376 -13.63204,8.06399 -22.752,8.064 -9.12002,-10e-6 -17.66402,-2.784 -25.632,-8.352 l 0,-100.656 12.96,-1.44 0,32.4 -0.72,7.2 0.432,0.288 c 4.41597,-5.66393 11.03997,-8.49593 19.872,-8.496 8.83195,7e-5 15.59994,3.69607 20.304,11.088 m -13.68,51.984 c 3.83995,-3.83999 5.75995,-11.37598 5.76,-22.608 -5e-5,-11.23196 -1.44005,-18.86395 -4.32,-22.896 -2.78405,-4.03194 -6.91204,-6.04794 -12.384,-6.048 -7.00803,6e-5 -12.09602,2.35206 -15.264,7.056 l 0,44.928 c 3.74398,2.78401 8.25597,4.17601 13.536,4.176 5.37596,10e-6 9.59996,-1.53599 12.672,-4.608"
         id="path2998"
         inkscape:connector-curvature="0"
         style="fill:#ffffff;fill-opacity:1" />
      <path
         d="m 318.13969,736.63813 c 2.49596,7e-5 4.36796,0.24007 5.616,0.72 1.34395,0.38407 2.44795,0.72007 3.312,1.008 0.86395,0.19207 1.39195,0.33607 1.584,0.432 l -2.304,12.96 c -2.88004,-0.95994 -6.33604,-1.43994 -10.368,-1.44 -3.93603,6e-5 -7.53603,1.72806 -10.8,5.184 -3.16802,3.36005 -4.75202,7.44005 -4.752,12.24 l 0,46.224 -12.96,0 0,-54.864 -1.152,-20.016 10.512,-1.44 1.584,14.544 0.576,0 c 1.63198,-4.70394 4.07998,-8.44793 7.344,-11.232 3.35997,-2.87993 7.29597,-4.31993 11.808,-4.32"
         id="path3000"
         inkscape:connector-curvature="0"
         style="fill:#ffffff;fill-opacity:1" />
      <path
         d="m 367.27744,736.63813 c 8.25596,7e-5 14.35195,2.49607 18.288,7.488 3.26394,4.03206 5.27994,10.80005 6.048,20.304 0.28794,3.74404 0.43194,8.40004 0.432,13.968 l -5.904,0.864 -37.296,0 c -2e-5,12.09602 3.21598,19.72801 9.648,22.896 2.68797,1.34401 6.38397,2.01601 11.088,2.016 4.70396,10e-6 10.12795,-1.53599 16.272,-4.608 l 4.032,8.928 c -7.96805,4.8 -15.98404,7.19999 -24.048,7.2 -20.54401,-10e-6 -30.816,-12.95999 -30.816,-38.88 0,-12.28796 2.68799,-22.03195 8.064,-29.232 5.47198,-7.29593 13.53597,-10.94393 24.192,-10.944 m 10.944,32.4 c -5e-5,-7.67995 -0.76805,-13.05595 -2.304,-16.128 -1.53604,-3.16794 -5.08804,-4.75194 -10.656,-4.752 -5.47203,6e-5 -9.36002,1.87206 -11.664,5.616 -2.30402,3.64805 -3.74402,8.73605 -4.32,15.264 l 28.944,0"
         id="path3002"
         inkscape:connector-curvature="0"
         style="fill:#ffffff;fill-opacity:1" />
      <path
         d="m 446.68894,737.50213 11.952,1.44 -20.736,75.024 -16.704,0 -21.744,-75.024 12.96,-1.44 16.992,63.792 0.72,0 16.56,-63.792"
         id="path3004"
         inkscape:connector-curvature="0"
         style="fill:#ffffff;fill-opacity:1" />
      <path
         d="m 484.92769,813.96613 -12.96,0 0,-74.88 12.96,-1.44 0,76.32 m -7.056,-80.496 c -5.85601,8e-5 -8.78401,-3.26392 -8.784,-9.792 -1e-5,-2.39991 0.76799,-4.46391 2.304,-6.192 1.63199,-1.72791 4.12799,-2.59191 7.488,-2.592 5.85598,9e-5 8.78398,3.26409 8.784,9.792 -2e-5,2.40008 -0.81602,4.46408 -2.448,6.192 -1.53602,1.72808 -3.98402,2.59208 -7.344,2.592"
         id="path3006"
         inkscape:connector-curvature="0"
         style="fill:#ffffff;fill-opacity:1" />
      <path
         d="m 548.71969,741.24613 c 0.096,7e-5 0.23995,-0.0479 0.432,-0.144 l -0.432,-3.744 0,-30.672 12.96,-1.44 0,87.984 1.152,20.016 -10.512,1.44 -1.584,-8.784 -0.576,0 c -5.76005,6.528 -12.67204,9.79199 -20.736,9.792 -8.06402,-10e-6 -14.49602,-2.832 -19.296,-8.496 -4.80001,-5.75999 -7.2,-15.93598 -7.2,-30.528 0,-5.95196 0.672,-11.32796 2.016,-16.128 1.34399,-4.79995 3.07199,-8.63994 5.184,-11.52 2.11199,-2.87994 4.55998,-5.27993 7.344,-7.2 4.89598,-3.45593 10.36797,-5.18393 16.416,-5.184 6.04796,7e-5 10.99195,1.53607 14.832,4.608 m -13.536,6.912 c -2.59203,6e-5 -4.80003,0.33606 -6.624,1.008 -1.82403,0.57606 -3.69603,1.72806 -5.616,3.456 -4.12802,3.74405 -6.19202,11.37605 -6.192,22.896 -2e-5,11.42402 1.29598,19.05601 3.888,22.896 2.68798,3.84001 6.95997,5.76001 12.816,5.76 3.26396,10e-6 6.28796,-0.71999 9.072,-2.16 2.78395,-1.53599 4.84795,-3.16799 6.192,-4.896 l 0,-44.928 c -3.74405,-2.68794 -8.25604,-4.03194 -13.536,-4.032"
         id="path3008"
         inkscape:connector-curvature="0"
         style="fill:#ffffff;fill-opacity:1" />
      <path
         d="m 625.50094,741.24613 c 0.096,7e-5 0.23995,-0.0479 0.432,-0.144 l -0.432,-3.744 0,-30.672 12.96,-1.44 0,87.984 1.152,20.016 -10.512,1.44 -1.584,-8.784 -0.576,0 c -5.76005,6.528 -12.67204,9.79199 -20.736,9.792 -8.06402,-10e-6 -14.49602,-2.832 -19.296,-8.496 -4.80001,-5.75999 -7.2,-15.93598 -7.2,-30.528 0,-5.95196 0.672,-11.32796 2.016,-16.128 1.34399,-4.79995 3.07199,-8.63994 5.184,-11.52 2.11199,-2.87994 4.55998,-5.27993 7.344,-7.2 4.89598,-3.45593 10.36797,-5.18393 16.416,-5.184 6.04796,7e-5 10.99195,1.53607 14.832,4.608 m -13.536,6.912 c -2.59203,6e-5 -4.80003,0.33606 -6.624,1.008 -1.82403,0.57606 -3.69603,1.72806 -5.616,3.456 -4.12802,3.74405 -6.19202,11.37605 -6.192,22.896 -2e-5,11.42402 1.29598,19.05601 3.888,22.896 2.68798,3.84001 6.95997,5.76001 12.816,5.76 3.26396,10e-6 6.28796,-0.71999 9.072,-2.16 2.78395,-1.53599 4.84795,-3.16799 6.192,-4.896 l 0,-44.928 c -3.74405,-2.68794 -8.25604,-4.03194 -13.536,-4.032"
         id="path3010"
         inkscape:connector-curvature="0"
         style="fill:#ffffff;fill-opacity:1" />
    </g>
    <rect
       style="fill:#a63131;fill-opacity:0;fill-rule:nonzero;stroke:#333333;stroke-width:0;stroke-linejoin:miter;stroke-miterlimit:4;stroke-opacity:1;stroke-dasharray:none"
       id="rect3785"
       width="596.42859"
       height="200.71428"
       x="157.85715"
       y="122.14286"
       transform="translate(0,552.36218)" />
  </g>
  <g
     inkscape:groupmode="layer"
     id="layer2"
     inkscape:label="film-y">
    <path
       style="fill:#ffffff;fill-opacity:1;fill-rule:nonzero;stroke:#333333;stroke-width:0;stroke-linejoin:miter;stroke-miterlimit:4;stroke-opacity:1"
       d="m 663.1875,198.21875 -13.53125,1.4375 c 6.50639,27.0074 16.45671,54.54833 24.71875,78.71875 l -3.34375,11.65625 c -66.49675,2.21374 -21.08512,77.29584 1.21051,29.66071 1.79264,-3.81531 5.7261,-14.22692 7.97699,-21.44196 5.56918,1.67338 11.29792,4.6312 17.5,8.8125 3.78813,-5.34939 5.14284,-6.85056 4.71875,-7.0625 -7.40067,-3.6985 -14.58378,-6.21422 -20.78125,-7.875 3.36112,-10.80147 7.28739,-23.12464 10.0625,-32.5625 l 17.6875,-59.78125 -12.5,-1.4375 -16.4375,61.625 -0.84375,0 z m 6.375,97.5 c -4.87468,16.29107 -10.86277,37.95535 -21.13072,27.81315 -10.02879,-9.90595 -2.53066,-27.92109 21.13072,-27.81315 z"
       id="rect3795"
       inkscape:connector-curvature="0"
       sodipodi:nodetypes="cccccccsccccccccsc" />
    <rect
       style="fill:#a63131;fill-opacity:1;fill-rule:nonzero;stroke:#333333;stroke-width:0;stroke-linejoin:miter;stroke-miterlimit:4;stroke-opacity:1;stroke-dasharray:none"
       id="rect3958"
       width="7.453248"
       height="9.0336704"
       x="732.74945"
       y="106.91143"
       rx="1.2523972e-16"
       transform="matrix(0.99148123,0.13024965,-0.25301773,0.96746164,0,0)" />
    <rect
       style="fill:#a63131;fill-opacity:1;fill-rule:nonzero;stroke:#333333;stroke-width:0;stroke-linejoin:miter;stroke-miterlimit:4;stroke-opacity:1;stroke-dasharray:none"
       id="rect4080"
       width="1.8283813"
       height="0.96084756"
       x="714.93549"
       y="133.98314"
       rx="0.21477152"
       ry="0.96084756"
       transform="matrix(0.99579751,0.09158229,-0.11069,0.99385498,0,0)" />
    <rect
       style="fill:#a63131;fill-opacity:1;fill-rule:nonzero;stroke:#333333;stroke-width:0;stroke-linejoin:miter;stroke-miterlimit:4;stroke-opacity:1;stroke-dasharray:none"
       id="rect4080-1"
       width="1.8283813"
       height="0.96084756"
       x="714.69519"
       y="135.57658"
       rx="0.21477152"
       ry="0.96084756"
       transform="matrix(0.99579751,0.09158229,-0.11069,0.99385498,0,0)" />
    <rect
       style="fill:#a63131;fill-opacity:1;fill-rule:nonzero;stroke:#333333;stroke-width:0;stroke-linejoin:miter;stroke-miterlimit:4;stroke-opacity:1;stroke-dasharray:none"
       id="rect4080-8"
       width="1.8283813"
       height="0.96084756"
       x="714.52301"
       y="137.1647"
       rx="0.21477152"
       ry="0.96084756"
       transform="matrix(0.99579751,0.09158229,-0.11069,0.99385498,0,0)" />
    <rect
       style="fill:#a63131;fill-opacity:1;fill-rule:nonzero;stroke:#333333;stroke-width:0;stroke-linejoin:miter;stroke-miterlimit:4;stroke-opacity:1;stroke-dasharray:none"
       id="rect4080-3"
       width="1.8283813"
       height="0.96084756"
       x="714.29498"
       y="138.67856"
       rx="0.21477152"
       ry="0.96084756"
       transform="matrix(0.99579751,0.09158229,-0.11069,0.99385498,0,0)" />
    <rect
       style="fill:#a63131;fill-opacity:1;fill-rule:nonzero;stroke:#333333;stroke-width:0;stroke-linejoin:miter;stroke-miterlimit:4;stroke-opacity:1;stroke-dasharray:none"
       id="rect4080-6"
       width="1.8283813"
       height="0.96084756"
       x="714.12286"
       y="140.12373"
       rx="0.21477152"
       ry="0.96084756"
       transform="matrix(0.99579751,0.09158229,-0.11069,0.99385498,0,0)" />
    <rect
       style="fill:#a63131;fill-opacity:1;fill-rule:nonzero;stroke:#333333;stroke-width:0;stroke-linejoin:miter;stroke-miterlimit:4;stroke-opacity:1;stroke-dasharray:none"
       id="rect4080-36"
       width="1.8283813"
       height="0.96084756"
       x="713.93323"
       y="141.55463"
       rx="0.21477152"
       ry="0.96084756"
       transform="matrix(0.99579751,0.09158229,-0.11069,0.99385498,0,0)" />
    <rect
       style="fill:#a63131;fill-opacity:1;fill-rule:nonzero;stroke:#333333;stroke-width:0;stroke-linejoin:miter;stroke-miterlimit:4;stroke-opacity:1;stroke-dasharray:none"
       id="rect4080-5"
       width="1.8283813"
       height="0.96084756"
       x="713.61456"
       y="143.10858"
       rx="0.21477152"
       ry="0.96084756"
       transform="matrix(0.99579751,0.09158229,-0.11069,0.99385498,0,0)" />
    <rect
       style="fill:#a63131;fill-opacity:1;fill-rule:nonzero;stroke:#333333;stroke-width:0;stroke-linejoin:miter;stroke-miterlimit:4;stroke-opacity:1;stroke-dasharray:none"
       id="rect4080-63"
       width="1.8283813"
       height="0.96084756"
       x="724.88818"
       y="134.58969"
       rx="0.21477152"
       ry="0.96084756"
       transform="matrix(0.99579751,0.09158229,-0.11069,0.99385498,0,0)" />
    <rect
       style="fill:#a63131;fill-opacity:1;fill-rule:nonzero;stroke:#333333;stroke-width:0;stroke-linejoin:miter;stroke-miterlimit:4;stroke-opacity:1;stroke-dasharray:none"
       id="rect4080-14"
       width="1.8283813"
       height="0.96084756"
       x="724.70032"
       y="136.32216"
       rx="0.21477152"
       ry="0.96084756"
       transform="matrix(0.99579751,0.09158229,-0.11069,0.99385498,0,0)" />
    <rect
       style="fill:#a63131;fill-opacity:1;fill-rule:nonzero;stroke:#333333;stroke-width:0;stroke-linejoin:miter;stroke-miterlimit:4;stroke-opacity:1;stroke-dasharray:none"
       id="rect4080-4"
       width="1.8283813"
       height="0.96084756"
       x="724.47235"
       y="137.83601"
       rx="0.21477152"
       ry="0.96084756"
       transform="matrix(0.99579751,0.09158229,-0.11069,0.99385498,0,0)" />
    <rect
       style="fill:#a63131;fill-opacity:1;fill-rule:nonzero;stroke:#333333;stroke-width:0;stroke-linejoin:miter;stroke-miterlimit:4;stroke-opacity:1;stroke-dasharray:none"
       id="rect4080-2"
       width="1.8283813"
       height="0.96084756"
       x="724.24091"
       y="139.46133"
       rx="0.21477152"
       ry="0.96084756"
       transform="matrix(0.99579751,0.09158229,-0.11069,0.99385498,0,0)" />
    <rect
       style="fill:#a63131;fill-opacity:1;fill-rule:nonzero;stroke:#333333;stroke-width:0;stroke-linejoin:miter;stroke-miterlimit:4;stroke-opacity:1;stroke-dasharray:none"
       id="rect4080-7"
       width="1.8283813"
       height="0.96084756"
       x="723.96588"
       y="141.12245"
       rx="0.21477152"
       ry="0.96084756"
       transform="matrix(0.99579751,0.09158229,-0.11069,0.99385498,0,0)" />
    <rect
       style="fill:#a63131;fill-opacity:1;fill-rule:nonzero;stroke:#333333;stroke-width:0;stroke-linejoin:miter;stroke-miterlimit:4;stroke-opacity:1;stroke-dasharray:none"
       id="rect4080-22"
       width="1.8283813"
       height="0.96084756"
       x="723.67169"
       y="142.75357"
       rx="0.21477152"
       ry="0.96084756"
       transform="matrix(0.99579751,0.09158229,-0.11069,0.99385498,0,0)" />
    <rect
       style="fill:#a63131;fill-opacity:1;fill-rule:nonzero;stroke:#333333;stroke-width:0;stroke-linejoin:miter;stroke-miterlimit:4;stroke-opacity:1;stroke-dasharray:none"
       id="rect3958-5"
       width="7.453248"
       height="9.0336704"
       x="732.85254"
       y="109.22191"
       rx="1.2523972e-16"
       transform="matrix(0.99015277,0.13999106,-0.26251705,0.96492735,0,0)" />
    <rect
       style="fill:#a63131;fill-opacity:1;fill-rule:nonzero;stroke:#333333;stroke-width:0;stroke-linejoin:miter;stroke-miterlimit:4;stroke-opacity:1;stroke-dasharray:none"
       id="rect3958-5-3"
       width="7.453248"
       height="9.0336704"
       x="732.71527"
       y="118.92538"
       rx="1.2523972e-16"
       transform="matrix(0.99015277,0.13999106,-0.26251705,0.96492735,0,0)" />
    <rect
       style="fill:#a63131;fill-opacity:1;fill-rule:nonzero;stroke:#333333;stroke-width:0;stroke-linejoin:miter;stroke-miterlimit:4;stroke-opacity:1;stroke-dasharray:none"
       id="rect3958-5-3-6"
       width="7.453248"
       height="9.0336704"
       x="732.68408"
       y="128.548"
       rx="1.2523972e-16"
       transform="matrix(0.99015277,0.13999106,-0.26251705,0.96492735,0,0)" />
    <rect
       style="fill:#a63131;fill-opacity:1;fill-rule:nonzero;stroke:#333333;stroke-width:0;stroke-linejoin:miter;stroke-miterlimit:4;stroke-opacity:1;stroke-dasharray:none"
       id="rect3958-5-3-6-7"
       width="7.453248"
       height="9.0336704"
       x="732.47711"
       y="138.22887"
       rx="1.2523972e-16"
       transform="matrix(0.99015277,0.13999106,-0.26251705,0.96492735,0,0)" />
    <rect
       style="fill:#a63131;fill-opacity:1;fill-rule:nonzero;stroke:#333333;stroke-width:0;stroke-linejoin:miter;stroke-miterlimit:4;stroke-opacity:1;stroke-dasharray:none"
       id="rect3958-5-3-6-7-7"
       width="7.453248"
       height="9.0336704"
       x="732.39856"
       y="147.79294"
       rx="1.2523972e-16"
       transform="matrix(0.99015277,0.13999106,-0.26251705,0.96492735,0,0)" />
    <rect
       style="fill:#a63131;fill-opacity:1;fill-rule:nonzero;stroke:#333333;stroke-width:0;stroke-linejoin:miter;stroke-miterlimit:4;stroke-opacity:1;stroke-dasharray:none"
       id="rect3958-5-3-6-7-7-0"
       width="7.453248"
       height="9.0336704"
       x="733.33771"
       y="146.75269"
       rx="1.2523972e-16"
       transform="matrix(0.98800312,0.1544339,-0.2765785,0.96099133,0,0)" />
    <rect
       style="fill:#a63131;fill-opacity:1;fill-rule:nonzero;stroke:#333333;stroke-width:0;stroke-linejoin:miter;stroke-miterlimit:4;stroke-opacity:1;stroke-dasharray:none"
       id="rect3958-5-3-6-7-7-0-9"
       width="7.453248"
       height="9.0336704"
       x="734.42468"
       y="141.41278"
       rx="1.2523972e-16"
       transform="matrix(0.98453791,0.17517162,-0.29672132,0.95496411,0,0)" />
    <rect
       style="fill:#a63131;fill-opacity:1;fill-rule:nonzero;stroke:#333333;stroke-width:0;stroke-linejoin:miter;stroke-miterlimit:4;stroke-opacity:1;stroke-dasharray:none"
       id="rect3958-5-3-6-7-7-0-9-6"
       width="7.453248"
       height="9.0336704"
       x="734.36554"
       y="151.0249"
       rx="1.2523972e-16"
       transform="matrix(0.98453791,0.17517162,-0.29672132,0.95496411,0,0)" />
    <rect
       style="fill:#a63131;fill-opacity:1;fill-rule:nonzero;stroke:#333333;stroke-width:0;stroke-linejoin:miter;stroke-miterlimit:4;stroke-opacity:1;stroke-dasharray:none"
       id="rect3958-5-3-6-7-7-0-9-4"
       width="7.453248"
       height="9.0336704"
       x="734.4339"
       y="160.54384"
       rx="1.2523972e-16"
       transform="matrix(0.98453791,0.17517162,-0.29672132,0.95496411,0,0)" />
  </g>
  <g
     inkscape:groupmode="layer"
     id="layer4"
     inkscape:label="half-y"
     style="opacity:1">
    <path
       style="fill:#ffffff;fill-opacity:1;fill-rule:nonzero;stroke:#333333;stroke-width:0;stroke-linejoin:miter;stroke-miterlimit:4;stroke-opacity:1"
       d="m 696.97726,198.26229 12.17658,1.77949 c -6.69771,24.15133 -23.7499,72.67023 -28.55417,92.17308 l -8.14855,-1.5026 c 7.00145,-27.77944 17.27261,-64.69089 24.52614,-92.44997 z"
       id="rect4931"
       inkscape:connector-curvature="0"
       sodipodi:nodetypes="ccccc" />
  </g>
  <g
     inkscape:groupmode="layer"
     id="layer5"
     inkscape:label="frames"
     style="opacity:1">
    <rect
       style="fill:#a63131;fill-opacity:1;fill-rule:nonzero;stroke:#333333;stroke-width:0;stroke-linejoin:miter;stroke-miterlimit:4;stroke-opacity:1;stroke-dasharray:none"
       id="rect3958-5-3-6-7-7-0-9-1"
       width="7.453248"
       height="9.0336704"
       x="734.46417"
       y="170.05038"
       rx="1.2523972e-16"
       transform="matrix(0.98453791,0.17517162,-0.29672132,0.95496411,0,0)" />
    <rect
       style="fill:#a63131;fill-opacity:1;fill-rule:nonzero;stroke:#333333;stroke-width:0;stroke-linejoin:miter;stroke-miterlimit:4;stroke-opacity:1;stroke-dasharray:none"
       id="rect3958-5-3-6-7-7-0-9-1-1"
       width="7.4169636"
       height="8.8820801"
       x="735.44653"
       y="181.41272"
       rx="1.2463002e-16"
       transform="matrix(0.98494573,0.17286382,-0.30044069,0.9538005,0,0)" />
    <rect
       style="fill:#a63131;fill-opacity:1;fill-rule:nonzero;stroke:#333333;stroke-width:0;stroke-linejoin:miter;stroke-miterlimit:4;stroke-opacity:1;stroke-dasharray:none"
       id="rect3958-5-3-6-7-7-0-9-1-1-6"
       width="7.2067685"
       height="8.2328548"
       x="742.03308"
       y="172.30807"
       rx="1.2109804e-16"
       transform="matrix(0.98004945,0.19875383,-0.34870176,0.93723374,0,0)" />
    <path
       transform="matrix(0.96036834,0.27873402,-0.46764816,0.8839147,0,0)"
       style="fill:#a63131;fill-opacity:1;fill-rule:nonzero;stroke:#333333;stroke-width:0;stroke-linejoin:miter;stroke-miterlimit:4;stroke-opacity:1"
       d="m 750.98687,122.03587 6.91211,-0.48236 -0.23548,9.23843 -6.69303,-1.61984 z"
       id="rect3958-5-3-6-7-7-0-9-1-1-6-8"
       inkscape:connector-curvature="0"
       sodipodi:nodetypes="ccccc" />
    <path
       style="fill:#a63131;fill-opacity:1;fill-rule:nonzero;stroke:#333333;stroke-width:0;stroke-linejoin:miter;stroke-miterlimit:4;stroke-opacity:1"
       d="m 660.65215,323.82099 5.60106,3.42588 c 0,0 -4.18867,4.83021 -6.95271,6.04902 -1.05727,-2.17052 -3.15045,-6.13285 -3.15045,-6.13285 z"
       id="rect3958-5-3-6-7-7-0-9-1-1-6-8-1"
       inkscape:connector-curvature="0"
       sodipodi:nodetypes="ccccc" />
    <path
       style="fill:#a63131;fill-opacity:1;fill-rule:nonzero;stroke:#333333;stroke-width:0;stroke-linejoin:miter;stroke-miterlimit:4;stroke-opacity:1"
       d="m 655.75948,327.19919 2.76094,6.39975 c 0,0 -6.46017,1.70285 -10.84958,-0.78732 0.22482,-0.41344 1.91064,-3.89443 3.01512,-6.23588 1.47123,0.9232 5.07352,0.62345 5.07352,0.62345 z"
       id="rect3958-5-3-6-7-7-0-9-1-1-6-8-1-3"
       inkscape:connector-curvature="0"
       sodipodi:nodetypes="ccccc" />
    <path
       style="fill:#a63131;fill-opacity:1;fill-rule:nonzero;stroke:#333333;stroke-width:0;stroke-linejoin:miter;stroke-miterlimit:4;stroke-opacity:1"
       d="m 650.24242,326.26055 -3.14004,6.32597 c 0,0 -4.3652,-2.17941 -6.31488,-6.53958 5.7241,-3.30735 3.57677,-1.95337 5.73364,-3.31121 0.6773,1.50625 3.72128,3.52482 3.72128,3.52482 z"
       id="rect3958-5-3-6-7-7-0-9-1-1-6-8-1-3-7"
       inkscape:connector-curvature="0"
       sodipodi:nodetypes="ccccc" />
    <path
       style="fill:#a63131;fill-opacity:1;fill-rule:nonzero;stroke:#333333;stroke-width:0;stroke-linejoin:miter;stroke-miterlimit:4;stroke-opacity:1"
       d="m 646.2339,322.45733 -5.7505,3.04492 c 0,0 -2.31709,-3.07406 -2.87379,-7.47375 5.88216,-1.07506 0.0678,-0.0506 5.93373,-1.13156 0.26369,1.71583 2.69056,5.56039 2.69056,5.56039 z"
       id="rect3958-5-3-6-7-7-0-9-1-1-6-8-1-3-7-3"
       inkscape:connector-curvature="0"
       sodipodi:nodetypes="ccccc" />
    <path
       style="fill:#a63131;fill-opacity:1;fill-rule:nonzero;stroke:#333333;stroke-width:0;stroke-linejoin:miter;stroke-miterlimit:4;stroke-opacity:1"
       d="m 643.47832,316.66956 -5.84878,0.86579 c 0,0 -1.14654,-4.01198 0.16995,-8.12284 0.23253,0.093 5.52951,1.31716 5.59249,1.33486 -0.43336,1.88878 -0.18256,4.24974 0.0864,5.93335 z"
       id="rect3958-5-3-6-7-7-0-9-1-1-6-8-1-3-7-3-9"
       inkscape:connector-curvature="0"
       sodipodi:nodetypes="cccccc" />
    <path
       style="fill:#a63131;fill-opacity:1;fill-rule:nonzero;stroke:#333333;stroke-width:0;stroke-linejoin:miter;stroke-miterlimit:4;stroke-opacity:1"
       d="m 643.35399,310.53486 -5.40371,-1.66712 c 0,0 0.99384,-3.9142 3.56316,-6.9281 0.15415,0.18828 4.29231,3.32332 4.3376,3.36796 -2.00112,2.86802 -1.84296,3.64912 -2.40755,5.2052 z"
       id="rect3958-5-3-6-7-7-0-9-1-1-6-8-1-3-7-3-9-0"
       inkscape:connector-curvature="0"
       sodipodi:nodetypes="cccccc" />
    <path
       style="fill:#a63131;fill-opacity:1;fill-rule:nonzero;stroke:#333333;stroke-width:0;stroke-linejoin:miter;stroke-miterlimit:4;stroke-opacity:1"
       d="m 641.70575,301.6618 c 0,0 2.31866,-3.0018 5.61997,-4.97963 0.0776,0.22321 2.65617,4.2183 2.68255,4.27415 -2.32159,1.60032 -2.9512,2.78737 -3.99156,4.01526 -1.52618,-0.87463 -2.88478,-2.18102 -4.31096,-3.30978 z"
       id="rect3958-5-3-6-7-7-0-9-1-1-6-8-1-3-7-3-9-0-1"
       inkscape:connector-curvature="0"
       sodipodi:nodetypes="ccccc" />
    <path
       style="fill:#a63131;fill-opacity:1;fill-rule:nonzero;stroke:#333333;stroke-width:0;stroke-linejoin:miter;stroke-miterlimit:4;stroke-opacity:1"
       d="m 647.57359,296.58243 c 0,0 2.95032,-1.9151 5.71853,-2.78903 0.0178,0.19825 1.4079,4.07481 1.41811,4.12588 -2.10404,0.8725 -3.32778,1.94221 -4.44159,2.72453 -0.21958,-0.29702 -2.51033,-3.7791 -2.69505,-4.06138 z"
       id="rect3958-5-3-6-7-7-0-9-1-1-6-8-1-3-7-3-9-0-1-8"
       inkscape:connector-curvature="0"
       sodipodi:nodetypes="ccccc" />
    <path
       style="fill:#a63131;fill-opacity:1;fill-rule:nonzero;stroke:#333333;stroke-width:0;stroke-linejoin:miter;stroke-miterlimit:4;stroke-opacity:1"
       d="m 653.60668,293.68644 c 0,0 2.96822,-1.20659 5.47053,-1.62446 0.0222,0.16939 0.81734,3.90495 0.81777,3.94949 -1.87767,0.34134 -3.78949,1.15697 -4.88658,1.63612 -0.14168,-0.28463 -1.2879,-3.69447 -1.40172,-3.96115 z"
       id="rect3958-5-3-6-7-7-0-9-1-1-6-8-1-3-7-3-9-0-1-8-1"
       inkscape:connector-curvature="0"
       sodipodi:nodetypes="ccccc" />
    <path
       style="fill:#a63131;fill-opacity:1;fill-rule:nonzero;stroke:#333333;stroke-width:0;stroke-linejoin:miter;stroke-miterlimit:4;stroke-opacity:1"
       d="m 659.37336,291.98907 c 0,0 3.0137,-0.66935 5.41151,-0.84058 -0.003,0.16497 0.26254,3.94618 0.25654,3.98879 -2.44447,0.19446 -3.80864,0.53206 -4.9127,0.83449 -0.0929,-0.29197 -0.68605,-3.71182 -0.75525,-3.9827 z"
       id="rect3958-5-3-6-7-7-0-9-1-1-6-8-1-3-7-3-9-0-1-8-1-2"
       inkscape:connector-curvature="0"
       sodipodi:nodetypes="cccccc" />
    <path
       style="fill:#a63131;fill-opacity:1;fill-rule:nonzero;stroke:#333333;stroke-width:0;stroke-linejoin:miter;stroke-miterlimit:4;stroke-opacity:1"
       d="m 665.05122,291.13474 c 0,0 2.52067,-0.2749 5.02686,-0.32432 -0.0126,0.0798 -0.0888,1.11796 -0.16325,2.14119 -0.0394,0.54097 -0.0513,1.57263 -0.0513,1.57263 l -0.1186,0.4904 c -1.70459,-0.11169 -2.67454,-0.0552 -4.48173,0.0846 -0.0528,-0.29561 -0.1798,-3.6925 -0.21192,-3.9645 z"
       id="rect3958-5-3-6-7-7-0-9-1-1-6-8-1-3-7-3-9-0-1-8-1-2-4"
       inkscape:connector-curvature="0"
       sodipodi:nodetypes="ccsccccc" />
    <path
       style="fill:#a63131;fill-opacity:1;fill-rule:nonzero;stroke:#333333;stroke-width:0;stroke-linejoin:miter;stroke-miterlimit:4;stroke-opacity:1"
       d="m 670.33934,290.79489 c 0,0 0.19823,-0.016 0.47391,-0.009 l -0.73868,2.74309 c 0.006,-0.88283 0.20611,-1.85575 0.26477,-2.73431 z"
       id="rect3958-5-3-6-7-7-0-9-1-1-6-8-1-3-7-3-9-0-1-8-1-2-4-3"
       inkscape:connector-curvature="0"
       sodipodi:nodetypes="cccc" />
    <path
       style="fill:#a63131;fill-opacity:1;fill-rule:nonzero;stroke:#333333;stroke-width:0;stroke-linejoin:miter;stroke-miterlimit:4;stroke-opacity:1"
       d="m 681.53787,292.88118 0.75757,0.21956 c 0,0 -1.37884,4.5154 -1.41029,4.55691 l -0.4538,-0.13264 z"
       id="rect3958-5-3-6-7-7-0-9-1-1-6-8-1-3-7-3-9-0-1-8-4"
       inkscape:connector-curvature="0"
       sodipodi:nodetypes="ccccc" />
    <path
       style="fill:#a63131;fill-opacity:1;fill-rule:nonzero;stroke:#333333;stroke-width:0;stroke-linejoin:miter;stroke-miterlimit:4;stroke-opacity:1"
       d="m 682.60911,293.12205 c 0,0 3.52452,1.10285 5.92141,2.00713 -0.14484,0.13653 -2.09692,4.65794 -2.09692,4.65794 -1.42834,-0.73524 -4.04793,-1.64414 -5.35136,-2.03616 0.0978,-0.3562 1.41914,-4.30923 1.52687,-4.62891 z"
       id="rect3958-5-3-6-7-7-0-9-1-1-6-8-1-3-7-3-9-0-1-8-15"
       inkscape:connector-curvature="0"
       sodipodi:nodetypes="ccccc" />
    <path
       style="fill:#a63131;fill-opacity:1;fill-rule:nonzero;stroke:#333333;stroke-width:0;stroke-linejoin:miter;stroke-miterlimit:4;stroke-opacity:1"
       d="m 688.76352,295.21396 c 0,0 3.39937,1.18762 6.02868,2.39949 -0.15483,0.13413 -2.86439,4.95993 -2.86439,4.95993 -1.32654,-0.91567 -3.97782,-2.16984 -5.21521,-2.70553 0.13001,-0.37444 1.91475,-4.31958 2.05092,-4.65389 z"
       id="rect3958-5-3-6-7-7-0-9-1-1-6-8-1-3-7-3-9-0-1-8-15-1"
       inkscape:connector-curvature="0"
       sodipodi:nodetypes="ccccc" />
    <path
       style="fill:#a63131;fill-opacity:1;fill-rule:nonzero;stroke:#333333;stroke-width:0;stroke-linejoin:miter;stroke-miterlimit:4;stroke-opacity:1"
       d="m 695.11035,297.71214 c 0,0 4.01945,1.73156 6.62052,3.22041 l -3.75864,5.31935 c -1.28462,-1.0649 -4.60687,-2.96238 -5.83412,-3.62734 0.16811,-0.37429 2.97224,-4.91242 2.97224,-4.91242 z"
       id="rect3958-5-3-6-7-7-0-9-1-1-6-8-1-3-7-3-9-0-1-8-15-1-4"
       inkscape:connector-curvature="0"
       sodipodi:nodetypes="ccccc" />
  </g>
</svg>
